<?xml version="1.0" encoding="utf-8"?>
<!-- Generator: Adobe Illustrator 18.1.1, SVG Export Plug-In . SVG Version: 6.00 Build 0)  -->
<svg version="1.1" id="Layer_1" xmlns="http://www.w3.org/2000/svg" xmlns:xlink="http://www.w3.org/1999/xlink" x="0px" y="0px"
	 viewBox="0 0 100 15.8" style="enable-background:new 0 0 100 15.8;" xml:space="preserve">
<style type="text/css">
	.st0{fill:#CFCFCF;}
	.st1{fill:#E7E9ED;}
</style>
<g>
	<path class="st0" d="M9.4,2.4c-0.1,0-0.1,0-0.2-0.1C9.2,2.3,9.1,2.2,8.9,2.1C8.8,2,8.7,1.9,8.5,1.8C8.3,1.7,8.1,1.6,7.9,1.5
		C7.6,1.4,7.4,1.4,7,1.3C6.7,1.2,6.4,1.2,6,1.2c-0.7,0-1.4,0.1-2,0.4C3.3,1.8,2.8,2.2,2.3,2.7c-0.4,0.5-0.8,1-1,1.7
		C1,5.1,0.9,5.8,0.9,6.7C0.9,7.5,1,8.3,1.3,9c0.2,0.7,0.6,1.2,1,1.7c0.4,0.5,1,0.8,1.5,1.1c0.6,0.2,1.2,0.4,1.9,0.4
		c0.4,0,0.8,0,1.2-0.1c0.3-0.1,0.7-0.1,0.9-0.3c0.3-0.1,0.6-0.3,0.8-0.4c0.2-0.2,0.5-0.4,0.7-0.6c0,0,0.1,0,0.1-0.1c0,0,0.1,0,0.1,0
		c0.1,0,0.1,0,0.1,0.1l0.3,0.4c-0.3,0.3-0.5,0.5-0.8,0.7c-0.3,0.2-0.6,0.4-1,0.6c-0.4,0.2-0.7,0.3-1.2,0.4c-0.4,0.1-0.9,0.1-1.4,0.1
		c-0.8,0-1.6-0.1-2.3-0.4c-0.7-0.3-1.3-0.7-1.8-1.3c-0.5-0.5-0.9-1.2-1.2-2C0.1,8.5,0,7.6,0,6.7c0-0.9,0.1-1.8,0.4-2.5
		c0.3-0.8,0.7-1.4,1.2-2c0.5-0.5,1.2-1,1.9-1.3C4.3,0.6,5.1,0.5,6,0.5c0.4,0,0.8,0,1.2,0.1c0.4,0.1,0.7,0.2,1,0.3
		C8.5,1,8.8,1.1,9.1,1.3c0.3,0.2,0.6,0.4,0.8,0.6L9.7,2.3C9.6,2.4,9.5,2.4,9.4,2.4L9.4,2.4z"/>
	<path class="st0" d="M19.3,6.7c-0.2-0.5-0.4-1-0.8-1.4c-0.3-0.4-0.7-0.7-1.2-0.9c-0.5-0.2-1-0.3-1.6-0.3S14.5,4.2,14,4.4
		c-0.5,0.2-0.9,0.5-1.2,0.9c-0.3,0.4-0.6,0.9-0.8,1.4c-0.2,0.5-0.3,1.1-0.3,1.8c0,0.7,0.1,1.3,0.3,1.8c0.2,0.5,0.4,1,0.8,1.4
		c0.3,0.4,0.7,0.7,1.2,0.9c0.5,0.2,1,0.3,1.7,0.3s1.2-0.1,1.6-0.3c0.5-0.2,0.9-0.5,1.2-0.9c0.3-0.4,0.6-0.8,0.8-1.4
		c0.2-0.5,0.3-1.1,0.3-1.8C19.6,7.8,19.5,7.2,19.3,6.7z M18.6,10c-0.1,0.5-0.3,0.9-0.6,1.2c-0.3,0.3-0.6,0.6-0.9,0.8
		c-0.4,0.2-0.8,0.3-1.3,0.3c-0.5,0-1-0.1-1.3-0.3c-0.4-0.2-0.7-0.4-1-0.8c-0.3-0.3-0.5-0.7-0.6-1.2c-0.1-0.5-0.2-1-0.2-1.6
		c0-0.6,0.1-1.1,0.2-1.6c0.1-0.5,0.3-0.9,0.6-1.2s0.6-0.6,1-0.8c0.4-0.2,0.8-0.3,1.3-0.3c0.5,0,1,0.1,1.3,0.3
		c0.4,0.2,0.7,0.4,0.9,0.8c0.3,0.3,0.5,0.7,0.6,1.2c0.1,0.5,0.2,1,0.2,1.6C18.7,9.1,18.7,9.6,18.6,10z"/>
	<path class="st0" d="M32,12.8V7.3c0-0.8-0.2-1.5-0.5-1.9c-0.4-0.4-0.9-0.7-1.5-0.7c-0.3,0-0.6,0.1-0.9,0.2
		c-0.3,0.1-0.5,0.3-0.7,0.5c-0.2,0.2-0.4,0.5-0.5,0.8c-0.1,0.3-0.2,0.7-0.2,1.1v5.5h-0.8V7.3c0-0.8-0.2-1.5-0.5-1.9
		c-0.3-0.4-0.8-0.7-1.5-0.7c-0.5,0-0.9,0.1-1.3,0.4s-0.7,0.7-1.1,1.2v6.5h-0.8V4.2h0.4c0.1,0,0.2,0.1,0.3,0.2l0.1,1.2
		c0.2-0.2,0.3-0.5,0.5-0.6c0.2-0.2,0.4-0.4,0.6-0.5c0.2-0.1,0.4-0.2,0.7-0.3c0.2-0.1,0.5-0.1,0.8-0.1c0.6,0,1.1,0.2,1.5,0.5
		C27,5,27.2,5.5,27.4,6.1c0.1-0.4,0.2-0.7,0.4-0.9C28,5,28.2,4.7,28.4,4.6c0.2-0.2,0.5-0.3,0.8-0.4c0.3-0.1,0.6-0.1,0.9-0.1
		c0.4,0,0.8,0.1,1.1,0.2c0.3,0.1,0.6,0.3,0.9,0.6c0.2,0.3,0.4,0.6,0.5,1c0.1,0.4,0.2,0.9,0.2,1.4v5.5H32L32,12.8z"/>
	<path class="st0" d="M41.7,5.2c-0.6-0.7-1.4-1.1-2.5-1.1c-0.6,0-1.2,0.2-1.7,0.5c-0.5,0.3-0.9,0.7-1.3,1.2l-0.1-1.3
		c0-0.1,0-0.1-0.1-0.2c-0.1,0-0.1,0-0.2,0h-0.5v11.6h0.8v-4.2c0.3,0.4,0.7,0.7,1.1,0.9c0.4,0.2,0.9,0.3,1.5,0.3
		c0.6,0,1.1-0.1,1.6-0.3c0.5-0.2,0.8-0.5,1.2-0.9c0.3-0.4,0.6-0.9,0.7-1.4c0.2-0.5,0.2-1.1,0.2-1.8C42.6,7,42.3,5.9,41.7,5.2z
		 M41.5,10c-0.1,0.5-0.3,0.9-0.6,1.2c-0.3,0.3-0.6,0.6-0.9,0.8c-0.4,0.2-0.8,0.3-1.3,0.3c-0.5,0-1-0.1-1.4-0.3
		c-0.4-0.2-0.8-0.6-1.1-1V6.4c0.4-0.5,0.8-0.9,1.2-1.2c0.5-0.3,1-0.4,1.6-0.4c0.9,0,1.6,0.3,2,0.9c0.5,0.6,0.7,1.5,0.7,2.8
		C41.7,9,41.7,9.5,41.5,10z"/>
	<path class="st0" d="M50.7,12.8c-0.2,0-0.2-0.1-0.2-0.2l-0.1-1.3c-0.4,0.5-0.9,0.9-1.4,1.2c-0.5,0.3-1.1,0.4-1.7,0.4
		c-0.5,0-0.9-0.1-1.2-0.2c-0.4-0.1-0.7-0.4-0.9-0.6c-0.2-0.3-0.4-0.6-0.5-1s-0.2-0.8-0.2-1.3V4.2h0.8v5.5c0,0.8,0.2,1.4,0.6,1.9
		c0.4,0.5,0.9,0.7,1.7,0.7c0.6,0,1.1-0.1,1.6-0.4c0.5-0.3,0.9-0.7,1.3-1.2V4.2h0.8v8.6H50.7L50.7,12.8z"/>
	<path class="st1" d="M62.9,2.9c0,0.1-0.1,0.1-0.2,0.2c-0.1,0.1-0.2,0.1-0.3,0.1c-0.1,0-0.3-0.1-0.4-0.2c-0.1-0.1-0.3-0.2-0.5-0.3
		c-0.2-0.1-0.5-0.2-0.8-0.3c-0.3-0.1-0.7-0.2-1.2-0.2c-0.6,0-1.1,0.1-1.6,0.3c-0.5,0.2-0.9,0.5-1.3,0.9c-0.4,0.4-0.6,0.8-0.8,1.4
		c-0.2,0.5-0.3,1.2-0.3,1.8c0,0.7,0.1,1.3,0.3,1.9c0.2,0.5,0.5,1,0.8,1.4c0.3,0.4,0.7,0.7,1.2,0.9c0.5,0.2,1,0.3,1.5,0.3
		c0.3,0,0.6,0,0.9-0.1c0.3,0,0.5-0.1,0.7-0.2c0.2-0.1,0.4-0.2,0.6-0.3c0.2-0.1,0.4-0.3,0.6-0.4c0.1-0.1,0.1-0.1,0.2-0.1
		c0.1,0,0.1,0,0.2,0c0.1,0,0.2,0,0.3,0.1l0.9,1c-0.5,0.6-1.1,1.1-1.9,1.4c-0.7,0.3-1.6,0.5-2.7,0.5c-0.9,0-1.8-0.2-2.5-0.5
		c-0.7-0.3-1.4-0.8-1.9-1.3c-0.5-0.6-0.9-1.2-1.2-2c-0.3-0.8-0.4-1.6-0.4-2.6c0-0.9,0.2-1.8,0.5-2.6c0.3-0.8,0.7-1.4,1.3-2
		c0.6-0.6,1.2-1,2-1.3c0.8-0.3,1.6-0.5,2.6-0.5c0.9,0,1.7,0.1,2.4,0.4c0.7,0.3,1.3,0.7,1.8,1.2L62.9,2.9L62.9,2.9z"/>
	<path class="st1" d="M70.6,5.7c0,0.1-0.1,0.2-0.1,0.2c-0.1,0-0.1,0.1-0.2,0.1c-0.1,0-0.2,0-0.4-0.1c-0.1,0-0.3-0.1-0.6-0.1
		c-0.4,0-0.8,0.1-1.1,0.4c-0.3,0.2-0.6,0.6-0.8,1.1v5.5h-2.1V3.9h1.2c0.2,0,0.4,0,0.5,0.1c0.1,0.1,0.1,0.2,0.2,0.4l0.1,1.1
		c0.3-0.5,0.7-1,1.1-1.3c0.4-0.3,0.9-0.5,1.4-0.5c0.4,0,0.8,0.1,1.1,0.3L70.6,5.7L70.6,5.7z"/>
	<path class="st1" d="M78.7,5.8c-0.2-0.4-0.4-0.8-0.6-1.1c-0.3-0.3-0.6-0.5-1-0.7c-0.4-0.2-0.9-0.3-1.4-0.3c-1.4,0-2.7,0.5-3.7,1.4
		l0.4,0.7c0.1,0.1,0.2,0.2,0.3,0.3c0.1,0.1,0.2,0.1,0.4,0.1c0.2,0,0.3,0,0.5-0.1c0.1-0.1,0.3-0.2,0.5-0.3c0.2-0.1,0.4-0.2,0.6-0.3
		c0.2-0.1,0.5-0.1,0.9-0.1c0.5,0,0.8,0.2,1.1,0.4c0.3,0.3,0.4,0.7,0.4,1.3v0.5c-1,0-1.8,0.1-2.5,0.3c-0.7,0.2-1.2,0.4-1.6,0.6
		c-0.4,0.3-0.7,0.6-0.9,0.9c-0.2,0.3-0.3,0.7-0.3,1c0,0.4,0.1,0.7,0.2,1c0.1,0.3,0.3,0.5,0.5,0.7c0.2,0.2,0.5,0.4,0.8,0.5
		c0.3,0.1,0.7,0.2,1,0.2c0.3,0,0.6,0,0.9-0.1s0.5-0.1,0.7-0.2c0.2-0.1,0.4-0.2,0.7-0.4c0.2-0.2,0.4-0.3,0.7-0.5l0.2,0.6
		c0.1,0.2,0.1,0.3,0.3,0.4c0.1,0.1,0.3,0.1,0.5,0.1h0.9V7.2C78.9,6.7,78.8,6.2,78.7,5.8z M76.8,10.5c-0.2,0.2-0.3,0.3-0.5,0.4
		c-0.2,0.1-0.3,0.2-0.5,0.3c-0.2,0.1-0.3,0.1-0.5,0.2c-0.2,0-0.4,0.1-0.6,0.1c-0.4,0-0.6-0.1-0.9-0.2c-0.2-0.2-0.3-0.4-0.3-0.8
		c0-0.2,0.1-0.4,0.2-0.5c0.1-0.2,0.3-0.3,0.5-0.4c0.3-0.1,0.6-0.2,1-0.3C75.7,9.1,76.2,9,76.8,9V10.5z"/>
	<path class="st1" d="M91.3,12.8V7.1c0-0.6-0.1-1-0.4-1.3c-0.2-0.3-0.6-0.4-1.1-0.4c-0.2,0-0.4,0-0.6,0.1c-0.2,0.1-0.4,0.2-0.5,0.3
		c-0.1,0.1-0.3,0.3-0.3,0.5c-0.1,0.2-0.1,0.5-0.1,0.7v5.6h-2.1V7.1c0-0.6-0.1-1-0.4-1.3c-0.2-0.3-0.6-0.4-1.1-0.4
		c-0.3,0-0.6,0.1-0.9,0.2c-0.3,0.2-0.5,0.4-0.7,0.6v6.5H81V3.9h1.3c0.3,0,0.5,0.1,0.5,0.4L83,5c0.2-0.2,0.3-0.3,0.5-0.5
		c0.2-0.1,0.3-0.3,0.5-0.4C84.2,4,84.4,4,84.6,3.9c0.2-0.1,0.5-0.1,0.7-0.1c0.6,0,1,0.2,1.4,0.5c0.4,0.3,0.6,0.7,0.8,1.2
		c0.1-0.3,0.3-0.5,0.5-0.8c0.2-0.2,0.4-0.4,0.7-0.5C89,4.1,89.2,4,89.5,3.9c0.3-0.1,0.6-0.1,0.8-0.1c0.5,0,0.9,0.1,1.3,0.2
		c0.4,0.2,0.7,0.4,1,0.7c0.3,0.3,0.5,0.6,0.6,1c0.1,0.4,0.2,0.9,0.2,1.4v5.6H91.3L91.3,12.8z"/>
	<path class="st1" d="M98.1,3.2c0-0.1-0.1-0.1-0.1-0.2C98,3,97.9,3,97.9,3c0.2-0.1,0.4-0.2,0.5-0.4c0.1-0.2,0.2-0.4,0.2-0.6
		c0-0.3-0.1-0.5-0.3-0.7c-0.2-0.2-0.5-0.2-1-0.2h-1.2v3.3h0.8V3.2h0.2c0.1,0,0.1,0,0.1,0c0,0,0.1,0.1,0.1,0.1l0.5,1
		c0,0.1,0.1,0.1,0.2,0.1h0.8L98.1,3.2z M97.8,2.3c0,0.1-0.1,0.1-0.1,0.2c-0.1,0-0.1,0.1-0.2,0.1s-0.2,0-0.3,0h-0.3V1.7h0.4
		c0.1,0,0.2,0,0.3,0c0.1,0,0.1,0,0.2,0.1c0,0,0.1,0.1,0.1,0.2c0,0.1,0,0.1,0,0.2C97.8,2.2,97.8,2.3,97.8,2.3z"/>
	<path class="st1" d="M99.9,2c-0.1-0.2-0.2-0.5-0.3-0.7c-0.1-0.2-0.3-0.4-0.4-0.5c-0.2-0.2-0.4-0.3-0.6-0.4S98.2,0.2,98,0.1
		C97.8,0,97.5,0,97.3,0s-0.5,0-0.7,0.1c-0.2,0.1-0.5,0.2-0.7,0.3c-0.2,0.1-0.4,0.3-0.5,0.4C95.2,1,95,1.1,94.9,1.3
		c-0.1,0.2-0.2,0.4-0.3,0.7c-0.1,0.2-0.1,0.5-0.1,0.7s0,0.5,0.1,0.7c0.1,0.2,0.2,0.4,0.3,0.6c0.1,0.2,0.3,0.4,0.4,0.6
		c0.2,0.2,0.3,0.3,0.5,0.4c0.2,0.1,0.4,0.2,0.7,0.3c0.2,0.1,0.5,0.1,0.7,0.1s0.5,0,0.7-0.1c0.2-0.1,0.4-0.2,0.6-0.3
		C98.8,5,99,4.8,99.2,4.7c0.2-0.2,0.3-0.4,0.4-0.6c0.1-0.2,0.2-0.4,0.3-0.6C100,3.2,100,3,100,2.7S100,2.2,99.9,2z M99.3,3.6
		c-0.1,0.3-0.3,0.5-0.5,0.7c-0.2,0.2-0.4,0.4-0.7,0.5C97.9,5,97.6,5,97.3,5S96.7,5,96.4,4.8c-0.3-0.1-0.5-0.3-0.7-0.5
		c-0.2-0.2-0.4-0.4-0.5-0.7C95.1,3.3,95,3.1,95,2.7c0-0.2,0-0.4,0.1-0.6c0.1-0.2,0.1-0.4,0.2-0.6c0.1-0.2,0.2-0.3,0.4-0.5
		C95.8,1,96,0.8,96.1,0.7c0.2-0.1,0.3-0.2,0.5-0.2c0.2-0.1,0.4-0.1,0.6-0.1c0.2,0,0.4,0,0.6,0.1c0.2,0.1,0.4,0.1,0.5,0.2
		c0.2,0.1,0.3,0.2,0.5,0.4c0.1,0.1,0.3,0.3,0.3,0.5c0.1,0.2,0.2,0.4,0.2,0.6c0.1,0.2,0.1,0.4,0.1,0.6C99.5,3.1,99.4,3.3,99.3,3.6z"
		/>
	<path class="st1" d="M98.1,3.2c0-0.1-0.1-0.1-0.1-0.2C98,3,97.9,3,97.9,3c0.2-0.1,0.4-0.2,0.5-0.4c0.1-0.2,0.2-0.4,0.2-0.6
		c0-0.3-0.1-0.5-0.3-0.7c-0.2-0.2-0.5-0.2-1-0.2h-1.2v3.3h0.8V3.2h0.2c0.1,0,0.1,0,0.1,0c0,0,0.1,0.1,0.1,0.1l0.5,1
		c0,0.1,0.1,0.1,0.2,0.1h0.8L98.1,3.2z M97.8,2.3c0,0.1-0.1,0.1-0.1,0.2c-0.1,0-0.1,0.1-0.2,0.1s-0.2,0-0.3,0h-0.3V1.7h0.4
		c0.1,0,0.2,0,0.3,0c0.1,0,0.1,0,0.2,0.1c0,0,0.1,0.1,0.1,0.2c0,0.1,0,0.1,0,0.2C97.8,2.2,97.8,2.3,97.8,2.3z"/>
	<path class="st1" d="M98.1,3.2c0-0.1-0.1-0.1-0.1-0.2C98,3,97.9,3,97.9,3c0.2-0.1,0.4-0.2,0.5-0.4c0.1-0.2,0.2-0.4,0.2-0.6
		c0-0.3-0.1-0.5-0.3-0.7c-0.2-0.2-0.5-0.2-1-0.2h-1.2v3.3h0.8V3.2h0.2c0.1,0,0.1,0,0.1,0c0,0,0.1,0.1,0.1,0.1l0.5,1
		c0,0.1,0.1,0.1,0.2,0.1h0.8L98.1,3.2z M97.8,2.3c0,0.1-0.1,0.1-0.1,0.2c-0.1,0-0.1,0.1-0.2,0.1s-0.2,0-0.3,0h-0.3V1.7h0.4
		c0.1,0,0.2,0,0.3,0c0.1,0,0.1,0,0.2,0.1c0,0,0.1,0.1,0.1,0.2c0,0.1,0,0.1,0,0.2C97.8,2.2,97.8,2.3,97.8,2.3z"/>
</g>
</svg>
